<svg width="23" height="23" viewBox="0 0 23 23" fill="none" xmlns="http://www.w3.org/2000/svg">
<path d="M22 11.5C22 17.299 17.299 22 11.5 22C9.48338 22 7.59953 21.4315 6 20.446L2 22L3.02783 17.7038C1.75293 15.9657 1 13.8208 1 11.5C1 5.70101 5.70101 1 11.5 1C17.299 1 22 5.70101 22 11.5Z" fill="#2CA5E0" stroke="white"/>
<g clip-path="url(#clip0)">
<path d="M9.92383 13.3254L9.75841 15.6521C9.99508 15.6521 10.0976 15.5504 10.2205 15.4284L11.3301 14.3679L13.6292 16.0517C14.0509 16.2867 14.348 16.1629 14.4617 15.6638L15.9709 8.59211L15.9713 8.59169C16.1051 7.96836 15.7459 7.72461 15.3351 7.87753L6.46424 11.2738C5.85882 11.5088 5.86799 11.8463 6.36132 11.9992L8.62924 12.7046L13.8972 9.40836C14.1451 9.24419 14.3705 9.33503 14.1851 9.49919L9.92383 13.3254Z" fill="white"/>
</g>
<defs>
<clipPath id="clip0">
<rect width="10" height="10" fill="white" transform="translate(6 7)"/>
</clipPath>
</defs>
</svg>
